<?xml version="1.0" encoding="UTF-8" standalone="no"?>
<svg xmlns="http://www.w3.org/2000/svg" version="1.1" width="1145" height="200">
	<defs>
		<style type="text/css">
			path { fill: #536eac; stroke: none; }
		</style>
	</defs>
	<path d="m 32,124 -17,0 0,57 16.748941,0 C 49.629523,181.39971 61.30753,169.37878 61.30753,152.62164 61.30753,135.86475 49.880582,124 32,124 z m -32,71 0,-85 31.5,0 c 27,0 45.5,18.5 45.5,42.5 0,24 -18.5,42.5 -45,42.5"/>
	<path d="m 124,140.9 c -11.9,0 -19.5,9.3 -19.5,20.6 0,11.4 8.2,20.6 19.6,20.6 11.8,0 19.3,-9.1 19.3,-20.4 0,-11.3 -7.9,-20.8 -19.4,-20.8 z m 0,54.1 c -19.6282,0 -34,-15.1 -34,-33.5 0,-18.48273 14.5,-33.5 34,-33.5 19.5,0 34,14.95569 34,33.4394 C 158.18225,179.80029 143.7,195 124,195"/>
	<path d="m 169.9,161.4 c 0,-18.5 14,-33.5 33.1,-33.5 12.1,0 19.60553,4.48137 25.45414,11.03221 l -9.04861,9.84916 c -4.4,-4.8 -9.1,-7.9 -16.5,-7.9 -10.6,0 -18.36886,9.12544 -18.36886,20.42544 0,11.6 7.86333,20.79319 19.06333,20.79319 6.9,0 11.9,-3.3 16.5,-8 l 8.8,8.8 c -6.2,7 -13.39447,12.08137 -25.89447,12.08137 -19,0 -33.10553,-15.08137 -33.10553,-33.58137 z"/>
	<path d="m 300,129 0,65 -15,0 0,-10.4 C 281,189.7 275,195 265.00512,195 250.5,195 242,185.3 242,170.2 l 0,-41.2 15,0 0,36.7 c -0.2,10 4.8,15.8 13.6,15.8 8.4,0 14.4,-6 14.4,-16 l 0,-36.5"/>
	<path d="m 416.02346,153.74807 0,41.26487 -15,0 L 401,158.3 c 0.2,-10.3 -4.5,-15.8 -12.8,-15.8 -8.4,0 -14.2,5.5 -14.2,16 l 0,36.5 -14,0 0,-36.9 c -0.4,-10 -5.3,-15.6 -13.5,-15.6 -7.9,0 -13.5,6.1 -13.5,16.1 l 0,36.4 -15,0 0,-65 15,0 0,10.2 c 3.9,-5.8 9.5,-11.2 19.4,-11.2 9.3,0 15.8,4.5 19.2,11.4 4.8,-6.9 11.72346,-11.38706 21.42346,-11.38706 14.4,0 23,8.93513 23,24.73513 z"/>
	<path d="m 477.4,156.9 c -1,-9.5 -6.5,-16.9 -16.2,-16.9 -9,0 -15.2,7 -16.5,17 l 32.3,0 c 0.4,-0.1 0.4,-0.1 0.4,-0.1 z m 3.1,18.34496 8.6,7.7 c -6.1,7.3 -14.3,12 -26.1,12 -18.6,0 -33,-13.54496 -33,-33.44496 0,-18.5 13,-33.54496 31.3,-33.54496 20.4,0 30.7,16.14496 30.7,34.74496 0,1.7 -0.2,2.8 -0.3,4.2 l -47,0 c 1.7,10.1 8.91969,16.05504 18.41969,16.05504 7.2,0 12.28031,-2.71008 17.38031,-7.71008 z"/>
	<path d="m 522,195 -15,0 0,-65 15,0 0,10.4 C 526,134.3 532,129 541.99711,129 556.5,129 565,139 565,154 l 0,41 -15,0 0,-36.7 c 0,-9.8 -5,-15.8 -13.6,-15.8 -8.4,0 -14.4,6 -14.4,16"/>
	<path d="m 600,174 c -0.21168,5.54425 2.7,7.9 7.7,7.9 3.5,0 6.3,-0.7 9.3,-2.2 l 0,12 c -3.9,2.1 -8,3.3 -13.5,3.3 -10.9,0 -18.5,-4.8 -18.5,-18.9 l 0,-34.1 -8,0 0,-12 8,0 0,-18 15,0 0,18 17,0 0,12 -17,0 0,32"/>
	<path d="m 630,151.1 c 0,-24.3 18.2,-44.1 44,-44.1 15.7,0 25.2,5.4 33.4,13.2 l -9.6,11.1 c -6.8,-6.3 -14.2,-10.6 -23.9,-10.6 -16.3,0 -28.2,13.4 -28.2,30.2 0,16.8 11.9,30.4 28.2,30.4 10.5,0 17.2,-4.3 24.5,-11.1 l 9.6,9.7 c -9.3,9.2 -19,15.1 -35,15.1 -24.5,0 -43,-19.3 -43,-43.9 z"/>
	<path d="m 722,195 15,0 0,-89 -15,0 z"/>
	<path d="m 787,140.9 c -11.9,0 -19.5,9.3 -19.5,20.6 0,11.4 8.2,20.6 19.6,20.6 11.8,0 19.3,-9.1 19.3,-20.4 0,-11.3 -7.9,-20.8 -19.4,-20.8 z m 0,54.1 c -19.6282,0 -34,-15.1 -34,-33.5 0,-18.48273 14.5,-33.5 34,-33.5 19.5,0 34,14.95569 34,33.4394 C 821.18225,179.80029 806.7,195 787,195"/>
	<path d="m 893,129 0,65 -15,0 0,-10.4 C 874,189.7 868,195 858.00512,195 843.5,195 834.9492,185.28925 834.9492,170.18925 l 0,-41.18925 15,0 0.0508,36.73392 c -0.2,10 4.8,15.76608 13.6,15.76608 8.4,0 14.4,-6 14.4,-16 l 0,-36.5"/>
	<path d="m 941.1,141 c -10,0 -18.35517,7.72533 -18.35517,20.59952 0,12.63071 8.46242,20.64703 18.37407,20.64703 C 950.91038,182.24655 959,174.5 959,162 c -0.1,-12.5 -8.1,-21 -17.9,-21 z m 17.88522,52.6 0,-10.62549 C 954.68522,189.67451 948,195 937.6,195 c -15,0 -29.6,-12 -29.6,-33.4 0,-21.4 14.28522,-33.6 29.48522,-33.6 10.4,0 21.5,6 21.5,11.5 l 0,-34.5 15,0 0,89 -14.6,-0.0255"/>
	<path d="M 969,1 C 935,1 906,12 887,38 862,17 839,5 810,5 783,5 764,17 755,25 731,9 715,0 691,0 680,0 667,3 659,7 l 7,16 c 6,-3 15,-5 25,-5 25,0 47,11 65,29 19,-21 38,-26 54,-26 35,0 59,21 82,46 12,-38 48,-50 77,-50 36,0 71,17 88,42 11,16 16,32 16,43 0,11 -4,19 -8,28 30,10 47,29 56,47 4,9 7,17 7,23 l 17,-1 c -1,-15 -3,-20 -7,-28 -13,-30 -38,-44.75 -50.5,-51 1.25,-5 2.5,-10 2.5,-18 0,-14 -4,-32 -18,-52 C 1049,18 1012,1 969,1 z" style="fill:#9b9c9e"/>
</svg>
